<?xml version="1.0" standalone="no"?>
<!DOCTYPE svg PUBLIC "-//W3C//DTD SVG 20010904//EN"
 "http://www.w3.org/TR/2001/REC-SVG-20010904/DTD/svg10.dtd">
<svg version="1.0" xmlns="http://www.w3.org/2000/svg"
 width="225.000000pt" height="225.000000pt" viewBox="0 0 225.000000 225.000000"
 preserveAspectRatio="xMidYMid meet">
<metadata>
Created by potrace 1.10, written by Peter Selinger 2001-2011
</metadata>
<g transform="translate(0.000000,225.000000) scale(0.100000,-0.100000)"
fill="#000000" stroke="none">
<path d="M1498 1840 c-9 -13 -24 -20 -45 -20 -42 0 -68 -36 -59 -82 7 -41 -14
-73 -42 -64 -12 4 -29 -2 -47 -15 -23 -19 -26 -27 -22 -60 4 -32 -1 -46 -32
-88 l-36 -50 -251 -3 -252 -3 35 -40 c19 -22 32 -34 28 -27 -4 7 -1 11 7 10 7
-2 13 4 13 12 0 8 -6 14 -13 12 -6 -1 -12 2 -12 8 0 5 7 10 15 10 8 0 15 -4
15 -10 0 -6 100 -10 280 -10 l280 0 -47 -65 c-34 -47 -51 -64 -63 -59 -8 3
-39 15 -69 27 l-53 21 -42 -22 c-32 -17 -55 -22 -106 -20 -36 2 -72 0 -80 -4
-11 -5 -26 8 -54 48 -34 50 -40 54 -54 41 -13 -14 -1 -35 122 -202 l136 -186
0 -205 0 -204 -77 0 c-78 -1 -78 -1 -100 -35 l-22 -35 224 0 c124 0 225 3 225
6 0 3 -9 19 -21 35 -19 28 -24 29 -95 29 l-74 0 0 205 0 205 164 227 164 228
-89 3 c-49 1 -89 5 -89 8 0 3 12 23 28 44 20 29 32 38 47 34 13 -3 32 4 49 17
25 20 27 26 22 64 -8 48 10 72 50 67 13 -2 32 6 44 18 18 18 21 30 16 59 -4
25 -1 44 9 58 14 19 11 33 -7 33 -4 0 -13 -9 -20 -20z m-21 -77 c0 -7 -4 -13
-9 -13 -5 0 -6 -4 -3 -10 3 -5 2 -10 -4 -10 -17 0 -33 38 -18 43 22 7 34 4 34
-10z m-117 -153 c-13 -25 -36 -26 -36 -2 0 12 9 19 23 20 21 2 22 -1 13 -18z
m-172 -353 c4 -20 -25 -34 -40 -19 -15 15 -1 44 19 40 10 -2 19 -11 21 -21z
m-167 3 c21 -12 25 -40 7 -58 -32 -32 -80 8 -58 48 12 23 23 25 51 10z m249 7
c0 -1 -26 -27 -57 -57 l-58 -55 55 58 c50 53 60 62 60 54z m-130 -86 c5 -11
10 -24 10 -30 0 -17 -46 -42 -64 -35 -22 8 -31 50 -16 69 18 21 57 19 70 -4z
m-110 -50 c1 -3 10 -17 20 -30 17 -19 23 -21 35 -11 25 21 17 5 -11 -21 -14
-13 -24 -19 -22 -14 2 6 -9 24 -24 40 -30 32 -37 58 -13 49 8 -4 15 -9 15 -13z"/>
</g>
</svg>
