<?xml version="1.0" standalone="no"?>
<!DOCTYPE svg PUBLIC "-//W3C//DTD SVG 20010904//EN"
 "http://www.w3.org/TR/2001/REC-SVG-20010904/DTD/svg10.dtd">
<svg version="1.0" xmlns="http://www.w3.org/2000/svg"
 width="225.000000pt" height="225.000000pt" viewBox="0 0 225.000000 225.000000"
 preserveAspectRatio="xMidYMid meet">
<metadata>
Created by potrace 1.10, written by Peter Selinger 2001-2011
</metadata>
<g transform="translate(0.000000,225.000000) scale(0.050000,-0.050000)"
fill="#811855" stroke="none">
<path d="M2990 3680 c-20 -22 -60 -40 -90 -40 -78 0 -123 -59 -117 -156 5 -81
-32 -153 -66 -132 -71 44 -175 -79 -150 -177 8 -31 -11 -73 -68 -149 l-80
-106 -499 0 -499 0 340 -465 339 -465 -5 -400 -5 -400 -150 -6 c-147 -6 -151
-7 -195 -75 l-45 -69 451 0 c249 0 449 7 445 15 -63 130 -52 123 -214 129
l-152 6 -5 400 -6 400 330 460 329 460 -179 6 c-98 3 -179 11 -179 17 0 39
125 162 156 154 69 -18 150 70 139 153 -13 97 13 140 86 140 89 0 146 67 134
158 -6 45 0 89 17 111 50 69 -3 96 -62 31z m-290 -850 c0 -5 -39 -63 -87 -127
l-86 -118 -117 47 c-141 58 -161 59 -250 11 -55 -29 -107 -37 -235 -33 l-166
4 -79 106 c-44 59 -80 110 -80 114 0 3 248 6 550 6 303 0 550 -4 550 -10z
m-329 -291 c7 -11 1 -34 -13 -51 -29 -36 -94 11 -69 50 17 28 65 28 82 1z
m-322 -30 c44 -45 13 -129 -47 -129 -54 0 -88 80 -52 120 44 48 58 49 99 9z
m208 -126 c45 -29 20 -132 -33 -140 -55 -7 -104 28 -104 75 0 68 76 103 137
65z"/>
</g>
</svg>
